<svg width="24" height="24" viewBox="0 0 24 24" fill="none" xmlns="http://www.w3.org/2000/svg">
<path opacity="0.35" d="M3 24V14.8712C3 11.0431 14 11.043 14 14.8711V24H3Z" fill="#126DF3"/>
<path fill-rule="evenodd" clip-rule="evenodd" d="M21.8614 1.06482C21.8614 1.42814 21.5669 1.72266 21.2036 1.72266C20.8402 1.72266 20.5457 1.42814 20.5457 1.06482C20.5457 0.701508 20.8402 0.406982 21.2036 0.406982C21.5669 0.406982 21.8614 0.701508 21.8614 1.06482ZM19.23 2.3805C19.5934 2.3805 19.8879 2.08597 19.8879 1.72266C19.8879 1.35934 19.5934 1.06482 19.23 1.06482C18.8667 1.06482 18.5722 1.35934 18.5722 1.72266C18.5722 2.08597 18.8667 2.3805 19.23 2.3805ZM17.2565 3.03834C17.6198 3.03834 17.9144 2.74382 17.9144 2.3805C17.9144 2.01719 17.6198 1.72266 17.2565 1.72266C16.8932 1.72266 16.5987 2.01719 16.5987 2.3805C16.5987 2.74382 16.8932 3.03834 17.2565 3.03834ZM17.4259 5.01186C17.7892 5.01186 18.0837 4.71734 18.0837 4.35402C18.0837 3.99071 17.7892 3.69618 17.4259 3.69618C17.0626 3.69618 16.7681 3.99071 16.7681 4.35402C16.7681 4.71734 17.0626 5.01186 17.4259 5.01186ZM17.9144 6.32754C17.9144 6.69086 17.6198 6.98538 17.2565 6.98538C16.8932 6.98538 16.5987 6.69086 16.5987 6.32754C16.5987 5.96422 16.8932 5.6697 17.2565 5.6697C17.6198 5.6697 17.9144 5.96422 17.9144 6.32754ZM19.23 7.64322C19.5934 7.64322 19.8879 7.3487 19.8879 6.98538C19.8879 6.62207 19.5934 6.32754 19.23 6.32754C18.8667 6.32754 18.5722 6.62207 18.5722 6.98538C18.5722 7.3487 18.8667 7.64322 19.23 7.64322ZM21.8614 7.64323C21.8614 8.00654 21.5669 8.30107 21.2036 8.30107C20.8402 8.30107 20.5457 8.00654 20.5457 7.64323C20.5457 7.27991 20.8402 6.98539 21.2036 6.98539C21.5669 6.98539 21.8614 7.27991 21.8614 7.64323ZM19.3994 5.01186C19.7627 5.01186 20.0573 4.71734 20.0573 4.35402C20.0573 3.99071 19.7627 3.69618 19.3994 3.69618C19.0361 3.69618 18.7416 3.99071 18.7416 4.35402C18.7416 4.71734 19.0361 5.01186 19.3994 5.01186ZM22.0308 4.35402C22.0308 4.71734 21.7363 5.01186 21.3729 5.01186C21.0096 5.01186 20.7151 4.71734 20.7151 4.35402C20.7151 3.99071 21.0096 3.69618 21.3729 3.69618C21.7363 3.69618 22.0308 3.99071 22.0308 4.35402ZM15.3396 5.62651C15.3396 5.86037 15.15 6.04994 14.9161 6.04994H12.5278C12.4199 6.31544 12.16 6.47417 11.9054 6.5309C11.9052 6.58807 11.9069 6.66039 11.913 6.7436C11.9292 6.96727 11.9757 7.25627 12.0914 7.53843C12.2061 7.81809 12.3847 8.08193 12.6632 8.27756C12.9397 8.47184 13.346 8.62101 13.9551 8.62101C14.189 8.62101 14.3785 8.81059 14.3785 9.04444C14.3785 9.27829 14.189 9.46787 13.9551 9.46787C13.2013 9.46787 12.6178 9.28071 12.1763 8.97049C11.7367 8.66163 11.4691 8.2528 11.3079 7.85981C11.1477 7.46931 11.0887 7.08564 11.0683 6.80482C11.0614 6.71016 11.0589 6.62568 11.0585 6.55467H10.1114L10.1012 6.55454C10.089 6.55425 10.0769 6.55637 10.0656 6.56077C10.0576 6.56389 10.0501 6.56811 10.0432 6.5733L9.47439 7.22115H9.56788C9.80174 7.22115 9.99131 7.41073 9.99131 7.64458V10.4872C10.889 10.7037 11.678 11.0431 12.274 11.4793C12.9568 11.9792 13.4363 12.648 13.4363 13.4354V23.1701C13.4363 23.4039 13.2467 23.5935 13.0129 23.5935H1.49374C1.25989 23.5935 1.07031 23.4039 1.07031 23.1701V13.4285C1.07031 12.6408 1.5506 11.9725 2.2339 11.4735C2.82973 11.0384 3.61827 10.7001 4.51518 10.4847V7.64458C4.51518 7.41073 4.70476 7.22115 4.93861 7.22115H5.02122L4.4627 6.57269C4.45616 6.56786 4.44899 6.5639 4.44137 6.56095C4.43006 6.55655 4.41798 6.55443 4.40584 6.55473L4.39561 6.55485H2.81147C2.43163 6.55485 1.92803 6.30149 1.92803 5.77574C1.92803 5.7379 1.9331 5.70023 1.94311 5.66374L2.97442 1.90368C3.01898 1.74121 3.15562 1.62061 3.32237 1.59658L7.14059 1.04636C7.17427 1.03773 7.20958 1.03314 7.24596 1.03314H11.6962C12.0766 1.03314 12.5796 1.28762 12.5796 1.81225V2.42166H14.9161C15.15 2.42166 15.3396 2.61123 15.3396 2.84509V5.62651ZM6.11444 7.22115C6.09792 7.18351 6.07559 7.14765 6.04736 7.11487L5.08601 5.99871C5.07732 5.98863 5.06817 5.97896 5.05857 5.96974C4.96919 5.88385 4.86368 5.8165 4.74814 5.7716C4.63442 5.72741 4.5132 5.70581 4.39126 5.70799H2.81147L2.80911 5.70798L3.71773 2.39521L7.29299 1.88H11.6962C11.7108 1.88 11.723 1.88169 11.7328 1.88398V5.70389C11.723 5.70614 11.7108 5.70781 11.6962 5.70781H10.1157C9.99372 5.70562 9.87243 5.72725 9.75865 5.7715C9.64305 5.81646 9.53751 5.88388 9.44811 5.96986C9.43954 5.97811 9.43132 5.98671 9.42347 5.99565L8.34739 7.22115H6.11444ZM5.1193 11.2205C5.1111 11.2226 5.10279 11.2245 5.09436 11.2261C4.10973 11.414 3.29282 11.7488 2.73333 12.1574C2.16985 12.5689 1.91717 13.0136 1.91717 13.4285V22.7466H12.5895V13.4354C12.5895 13.0201 12.3368 12.5749 11.7737 12.1627C11.2146 11.7534 10.3982 11.4176 9.41382 11.2285C9.40228 11.2263 9.39093 11.2236 9.3798 11.2205H5.1193ZM14.4927 5.20308V3.26852H12.8745V5.20308H14.4927ZM5.36204 8.06801H9.14445V10.3737H5.36204V8.06801Z" fill="#222222"/>
</svg>
